
		<svg xmlns="http://www.w3.org/2000/svg" xmlns:xlink="http://www.w3.org/1999/xlink" version="1.1" width="3096.7024241219347" height="725.2681809145118">
			
			<g transform="scale(4.835121206096746) translate(10, 10)">
				<defs id="SvgjsDefs1713"/><g id="SvgjsG1714" featureKey="root" fill="#000" transform="matrix(1,0,0,1,0,0)"/><g id="SvgjsG1715" featureKey="symbol1" fill="#000" transform="matrix(1.1363636363636365,0,0,1.1363636363636365,8.181818181818182,8.181818181818182)"><path d="M75.3,34.2v23c0,1.1-0.9,2-2,2H26.7c-1.1,0-2-0.9-2-2v-23c0-1.1,0.9-2,2-2h46.6C74.4,32.3,75.3,33.2,75.3,34.2z"/><path d="M50,6C25.7,6,6,25.7,6,50s19.7,44,44,44s44-19.7,44-44S74.3,6,50,6z M30,71c0-1.8,0.7-3.5,1.9-4.6c1.2-1.2,2.8-1.9,4.6-1.9  h26.9c3.6,0,6.6,2.9,6.6,6.6H30z M78.5,60.5c0,1.1-0.9,2-2,2H23.4c-1.1,0-2-0.9-2-2V31c0-1.1,0.9-2,2-2h53.2c1.1,0,2,0.9,2,2V60.5z   M64.4,67.1h-7.9c-0.4,0-0.7,0.3-0.7,0.7s0.3,0.7,0.7,0.7h7.9c0.4,0,0.7-0.3,0.7-0.7S64.8,67.1,64.4,67.1z M53.3,66.4H52  c-0.4,0-0.7,0.3-0.7,0.7v1.3c0,0.4,0.3,0.6,0.7,0.6h1.3c0.4,0,0.7-0.3,0.7-0.6v-1.3C53.9,66.7,53.6,66.4,53.3,66.4z"/></g><g id="SvgjsG1716" featureKey="text1" fill="#000" transform="matrix(4.184099817365409,0,0,4.184099817365409,128.07531192926692,10.564862413545846)"><path d="M0.52 9.36 c0 -2.24 1.1 -3.52 3.24 -3.52 s3.24 1.28 3.24 3.52 l0 0.44 l-2.08 0 l0 -0.58 c0 -1 -0.4 -1.38 -1.1 -1.38 s-1.1 0.38 -1.1 1.38 c0 1.02 0.44 1.78 1.88 3.04 c1.84 1.62 2.42 2.78 2.42 4.38 c0 2.24 -1.12 3.52 -3.28 3.52 s-3.28 -1.28 -3.28 -3.52 l0 -0.86 l2.08 0 l0 1 c0 1 0.44 1.36 1.14 1.36 s1.14 -0.36 1.14 -1.36 c0 -1.02 -0.44 -1.78 -1.88 -3.04 c-1.84 -1.62 -2.42 -2.78 -2.42 -4.38 z M7.640000000000001 8 l0 -2 l6.8 0 l0 2 l-2.3 0 l0 12 l-2.2 0 l0 -12 l-2.3 0 z M15.3 6 l2.2 0 l0 10.8 c0 1 0.44 1.36 1.14 1.36 s1.14 -0.36 1.14 -1.36 l0 -10.8 l2.08 0 l0 10.66 c0 2.24 -1.12 3.52 -3.28 3.52 s-3.28 -1.28 -3.28 -3.52 l0 -10.66 z M23.360000000000003 20 l0 -14 l3.48 0 c2.2 0 3.28 1.22 3.28 3.46 l0 7.08 c0 2.24 -1.08 3.46 -3.28 3.46 l-3.48 0 z M26.800000000000004 8 l-1.24 0 l0 10 l1.24 0 c0.7 0 1.12 -0.36 1.12 -1.36 l0 -7.28 c0 -1 -0.42 -1.36 -1.12 -1.36 z M31.520000000000003 20 l0 -14 l2.2 0 l0 14 l-2.2 0 z M37.52 8 l0 3.9 l3.02 0 l0 2 l-3.02 0 l0 4.1 l3.8 0 l0 2 l-6 0 l0 -14 l6 0 l0 2 l-3.8 0 z M42.68 20 l0 -14 l3.48 0 c2.2 0 3.28 1.22 3.28 3.46 l0 7.08 c0 2.24 -1.08 3.46 -3.28 3.46 l-3.48 0 z M46.120000000000005 8 l-1.24 0 l0 10 l1.24 0 c0.7 0 1.12 -0.36 1.12 -1.36 l0 -7.28 c0 -1 -0.42 -1.36 -1.12 -1.36 z  M53.66000000000001 9.36 c0 -2.24 1.1 -3.52 3.24 -3.52 s3.24 1.28 3.24 3.52 l0 0.44 l-2.08 0 l0 -0.58 c0 -1 -0.4 -1.38 -1.1 -1.38 s-1.1 0.38 -1.1 1.38 c0 1.02 0.44 1.78 1.88 3.04 c1.84 1.62 2.42 2.78 2.42 4.38 c0 2.24 -1.12 3.52 -3.28 3.52 s-3.28 -1.28 -3.28 -3.52 l0 -0.86 l2.08 0 l0 1 c0 1 0.44 1.36 1.14 1.36 s1.14 -0.36 1.14 -1.36 c0 -1.02 -0.44 -1.78 -1.88 -3.04 c-1.84 -1.62 -2.42 -2.78 -2.42 -4.38 z M63.440000000000005 9.22 l0 7.56 c0 1 0.44 1.38 1.14 1.38 s1.14 -0.38 1.14 -1.38 l0 -7.56 c0 -1 -0.44 -1.38 -1.14 -1.38 s-1.14 0.38 -1.14 1.38 z M61.24 16.64 l0 -7.28 c0 -2.24 1.18 -3.52 3.34 -3.52 s3.34 1.28 3.34 3.52 l0 7.28 c0 2.24 -1.18 3.52 -3.34 3.52 s-3.34 -1.28 -3.34 -3.52 z M69.34 20 l0 -14 l2.2 0 l0 12 l3.62 0 l0 2 l-5.82 0 z M76.02000000000001 6 l2.2 0 l0 10.8 c0 1 0.44 1.36 1.14 1.36 s1.14 -0.36 1.14 -1.36 l0 -10.8 l2.08 0 l0 10.66 c0 2.24 -1.12 3.52 -3.28 3.52 s-3.28 -1.28 -3.28 -3.52 l0 -10.66 z M83.44 8 l0 -2 l6.8 0 l0 2 l-2.3 0 l0 12 l-2.2 0 l0 -12 l-2.3 0 z M91.2 20 l0 -14 l2.2 0 l0 14 l-2.2 0 z M97.02 9.22 l0 7.56 c0 1 0.44 1.38 1.14 1.38 s1.14 -0.38 1.14 -1.38 l0 -7.56 c0 -1 -0.44 -1.38 -1.14 -1.38 s-1.14 0.38 -1.14 1.38 z M94.82000000000001 16.64 l0 -7.28 c0 -2.24 1.18 -3.52 3.34 -3.52 s3.34 1.28 3.34 3.52 l0 7.28 c0 2.24 -1.18 3.52 -3.34 3.52 s-3.34 -1.28 -3.34 -3.52 z M107.62 20 l-2.7 -10.14 l-0.04 0 l0 10.14 l-1.98 0 l0 -14 l2.76 0 l2.22 8.38 l0.04 0 l0 -8.38 l1.96 0 l0 14 l-2.26 0 z M111.18 9.36 c0 -2.24 1.1 -3.52 3.24 -3.52 s3.24 1.28 3.24 3.52 l0 0.44 l-2.08 0 l0 -0.58 c0 -1 -0.4 -1.38 -1.1 -1.38 s-1.1 0.38 -1.1 1.38 c0 1.02 0.44 1.78 1.88 3.04 c1.84 1.62 2.42 2.78 2.42 4.38 c0 2.24 -1.12 3.52 -3.28 3.52 s-3.28 -1.28 -3.28 -3.52 l0 -0.86 l2.08 0 l0 1 c0 1 0.44 1.36 1.14 1.36 s1.14 -0.36 1.14 -1.36 c0 -1.02 -0.44 -1.78 -1.88 -3.04 c-1.84 -1.62 -2.42 -2.78 -2.42 -4.38 z"/></g>
			</g>
		</svg>
	